<svg width="19" height="20" viewBox="0 0 19 20" fill="none" xmlns="http://www.w3.org/2000/svg">
<path d="M9.3125 5.39258C6.6875 5.39258 4.5957 7.52539 4.5957 10.1094C4.5957 12.7344 6.6875 14.8262 9.3125 14.8262C11.8965 14.8262 14.0293 12.7344 14.0293 10.1094C14.0293 7.52539 11.8965 5.39258 9.3125 5.39258ZM9.3125 13.1855C7.63086 13.1855 6.23633 11.832 6.23633 10.1094C6.23633 8.42773 7.58984 7.07422 9.3125 7.07422C10.9941 7.07422 12.3477 8.42773 12.3477 10.1094C12.3477 11.832 10.9941 13.1855 9.3125 13.1855ZM15.3008 5.22852C15.3008 4.61328 14.8086 4.12109 14.1934 4.12109C13.5781 4.12109 13.0859 4.61328 13.0859 5.22852C13.0859 5.84375 13.5781 6.33594 14.1934 6.33594C14.8086 6.33594 15.3008 5.84375 15.3008 5.22852ZM18.418 6.33594C18.3359 4.85938 18.0078 3.54688 16.9414 2.48047C15.875 1.41406 14.5625 1.08594 13.0859 1.00391C11.5684 0.921875 7.01562 0.921875 5.49805 1.00391C4.02148 1.08594 2.75 1.41406 1.64258 2.48047C0.576172 3.54688 0.248047 4.85938 0.166016 6.33594C0.0839844 7.85352 0.0839844 12.4062 0.166016 13.9238C0.248047 15.4004 0.576172 16.6719 1.64258 17.7793C2.75 18.8457 4.02148 19.1738 5.49805 19.2559C7.01562 19.3379 11.5684 19.3379 13.0859 19.2559C14.5625 19.1738 15.875 18.8457 16.9414 17.7793C18.0078 16.6719 18.3359 15.4004 18.418 13.9238C18.5 12.4062 18.5 7.85352 18.418 6.33594ZM16.4492 15.5234C16.1621 16.3438 15.5059 16.959 14.7266 17.2871C13.4961 17.7793 10.625 17.6562 9.3125 17.6562C7.95898 17.6562 5.08789 17.7793 3.89844 17.2871C3.07812 16.959 2.46289 16.3438 2.13477 15.5234C1.64258 14.334 1.76562 11.4629 1.76562 10.1094C1.76562 8.79688 1.64258 5.92578 2.13477 4.69531C2.46289 3.91602 3.07812 3.30078 3.89844 2.97266C5.08789 2.48047 7.95898 2.60352 9.3125 2.60352C10.625 2.60352 13.4961 2.48047 14.7266 2.97266C15.5059 3.25977 16.1211 3.91602 16.4492 4.69531C16.9414 5.92578 16.8184 8.79688 16.8184 10.1094C16.8184 11.4629 16.9414 14.334 16.4492 15.5234Z" fill="white"/>
</svg>
