<svg width="23" height="16" viewBox="0 0 23 16" fill="none" xmlns="http://www.w3.org/2000/svg">
<path d="M22.2051 2.73633C21.959 1.75195 21.1797 0.972656 20.2363 0.726562C18.4727 0.234375 11.5 0.234375 11.5 0.234375C11.5 0.234375 4.48633 0.234375 2.72266 0.726562C1.7793 0.972656 1 1.75195 0.753906 2.73633C0.261719 4.45898 0.261719 8.15039 0.261719 8.15039C0.261719 8.15039 0.261719 11.8008 0.753906 13.5645C1 14.5488 1.7793 15.2871 2.72266 15.5332C4.48633 15.9844 11.5 15.9844 11.5 15.9844C11.5 15.9844 18.4727 15.9844 20.2363 15.5332C21.1797 15.2871 21.959 14.5488 22.2051 13.5645C22.6973 11.8008 22.6973 8.15039 22.6973 8.15039C22.6973 8.15039 22.6973 4.45898 22.2051 2.73633ZM9.20312 11.4727V4.82812L15.0273 8.15039L9.20312 11.4727Z" fill="white"/>
</svg>
